<svg width="36" height="36" viewBox="0 0 36 36" fill="none" xmlns="http://www.w3.org/2000/svg">
<path d="M26.1599 5.2002C27.243 5.20021 28.2511 5.60138 28.8415 6.50195L33.4812 12.2266C34.262 13.418 34.1521 14.9849 33.2097 16.0557L20.3933 29.709C19.1261 31.1482 16.8754 31.1677 15.5954 29.7412L2.81124 16.4033C1.86404 15.3469 1.73218 13.8326 2.48898 12.6348L7.17745 6.54688C7.76299 5.62085 8.78678 5.20029 9.88742 5.2002H26.1599ZM6.85421 16.3203L16.7585 26.4766C17.3985 27.1913 18.5244 27.1147 19.1579 26.3936L28.8523 16.3203H6.85421ZM10.7712 8.37695C10.2225 8.37695 9.7105 8.65887 9.41769 9.12109L6.1423 13.1426H30.0173L26.5583 9.09375C26.2623 8.64575 25.7596 8.37695 25.2204 8.37695H10.7712Z" fill="#B06026"/>
</svg>
