<svg width="49" height="30" viewBox="0 0 49 30" fill="none" xmlns="http://www.w3.org/2000/svg">
<path d="M0.743286 11.4949L9.74329 1.49487L18.7433 11.4949" stroke="#B06026" stroke-width="2"/>
<path d="M29.7433 11.4949L38.7433 1.49487L47.7433 11.4949" stroke="#B06026" stroke-width="2"/>
<mask id="path-3-inside-1_26_604" fill="white">
<path d="M35.2433 18.9949C35.2433 25.07 30.3184 29.9949 24.2433 29.9949C18.1682 29.9949 13.2433 25.07 13.2433 18.9949H35.2433Z"/>
</mask>
<path d="M35.2433 18.9949H37.2433V16.9949H35.2433V18.9949ZM13.2433 18.9949V16.9949H11.2433V18.9949H13.2433ZM35.2433 18.9949H33.2433C33.2433 23.9654 29.2138 27.9949 24.2433 27.9949V29.9949V31.9949C31.423 31.9949 37.2433 26.1746 37.2433 18.9949H35.2433ZM24.2433 29.9949V27.9949C19.2727 27.9949 15.2433 23.9654 15.2433 18.9949H13.2433H11.2433C11.2433 26.1746 17.0636 31.9949 24.2433 31.9949V29.9949ZM13.2433 18.9949V20.9949H35.2433V18.9949V16.9949H13.2433V18.9949Z" fill="#B06026" mask="url(#path-3-inside-1_26_604)"/>
</svg>
